<svg width="147" height="40" viewBox="0 0 147 40" fill="none" xmlns="http://www.w3.org/2000/svg">
<path d="M1 38.6286C1.00986 36.5825 1.01509 30.3079 1.01509 19.805C1.01509 18.0444 1.43851 16.4075 2.28579 14.8945C3.13263 13.382 4.28321 12.1918 5.73708 11.3234C7.19066 10.4554 8.77974 10.0215 10.5042 10.0215C12.2286 10.0215 13.8279 10.4556 15.3015 11.3234C16.7752 12.1918 17.9357 13.382 18.783 14.8945C19.6299 16.4076 20.0387 18.0444 20.0085 19.805C19.9485 22.5706 19.0311 24.8956 17.2565 26.7801C15.4821 28.665 13.231 29.6073 10.5042 29.6073C9.46148 29.6073 8.42386 29.3871 7.39161 28.947C6.35846 28.507 5.49131 27.9334 4.78984 27.2266V38.6286H1ZM10.504 25.6828C12.0782 25.6828 13.414 25.1095 14.5119 23.9624C15.6097 22.8155 16.1737 21.4297 16.2037 19.8052C16.2438 18.2056 15.6998 16.8292 14.5721 15.6759C13.4444 14.5226 12.0882 13.9462 10.504 13.9462C8.94021 13.9462 7.60929 14.5167 6.5116 15.6574C5.41362 16.7983 4.84453 18.181 4.80449 19.8052C4.77461 21.4173 5.32083 22.7998 6.44392 23.953C7.56656 25.1063 8.92004 25.6828 10.504 25.6828Z" fill="black" stroke="black" stroke-miterlimit="10"/>
<path d="M39.6343 14.9041C40.4864 16.4109 40.9127 18.051 40.9127 19.8241V29.0872H37.1078V27.2642C36.4058 27.9711 35.5411 28.5384 34.5138 28.9663C33.4861 29.394 32.4507 29.6078 31.4082 29.6078C28.691 29.6078 26.4455 28.6655 24.6708 26.7806C22.8963 24.896 21.9789 22.5769 21.9189 19.8239C21.8785 18.0509 22.2848 16.4107 23.137 14.9039C23.9891 13.3974 25.1496 12.2068 26.6185 11.3328C28.0874 10.4585 29.6837 10.0215 31.4083 10.0215C33.1326 10.0215 34.7219 10.4619 36.1757 11.3422C37.629 12.2104 38.782 13.3976 39.6343 14.9041ZM27.3477 15.6762C26.2246 16.8295 25.6783 18.2122 25.7085 19.8241C25.7484 21.4486 26.3175 22.8315 27.4152 23.9718C28.5129 25.1129 29.8438 25.6832 31.4079 25.6832C32.9919 25.6832 34.3481 25.1066 35.476 23.9533C36.6039 22.8001 37.1479 21.4237 37.1075 19.8239C37.0777 18.1997 36.5136 16.8139 35.4159 15.6668C34.3181 14.5198 32.9819 13.9463 31.4079 13.9463C29.824 13.9463 28.4705 14.5229 27.3477 15.6762Z" fill="black" stroke="black" stroke-miterlimit="10"/>
<path d="M46.5812 10.5977V19.8235C46.5812 21.4358 47.0398 22.8087 47.9572 23.9433C48.8745 25.0779 49.9872 25.6453 51.2955 25.6453C52.604 25.6453 53.7168 25.0779 54.6343 23.9433C55.5514 22.8087 56.0103 21.4356 56.0103 19.8235V10.5977H59.8147C59.8147 12.8052 59.8121 15.9329 59.8074 19.9816C59.8021 24.0305 59.7996 27.1147 59.7996 29.2353C59.7996 32.0126 59.0178 34.3347 57.4538 36.2011C55.8898 38.0668 53.8295 39.0002 51.2728 39.0002C49.3077 39.0002 47.6136 38.4237 46.19 37.2704C44.7662 36.1174 43.7737 34.6041 43.2125 32.732L46.7917 31.4113C47.0823 32.5395 47.6136 33.4354 48.3857 34.099C49.1574 34.7623 50.1198 35.0941 51.2728 35.0941C52.7868 35.0941 53.9574 34.539 54.7845 33.4295C55.6116 32.3194 56.0251 30.9215 56.0251 29.2351V27.4123C54.5714 28.8629 52.867 29.5885 50.9121 29.5885C49.368 29.5885 47.9671 29.12 46.7088 28.1842C45.4503 27.2483 44.4705 25.974 43.7689 24.3618C43.0668 22.7499 42.7163 20.9766 42.7163 19.0423V10.5977H46.5812Z" fill="black" stroke="black" stroke-miterlimit="10"/>
<path d="M76.2225 11.4814C77.7764 12.455 78.9342 13.7354 79.6964 15.3225L76.1774 16.8849C75.6963 15.9921 75.0016 15.2792 74.0945 14.7458C73.1871 14.2127 72.2119 13.9461 71.1697 13.9461C69.5952 13.9461 68.262 14.5198 67.1692 15.6666C66.0763 16.8139 65.51 18.1995 65.4698 19.8238C65.44 21.4234 65.9862 22.7999 67.1092 23.9531C68.2321 25.1064 69.5855 25.683 71.1698 25.683C72.2025 25.683 73.1399 25.4197 73.982 24.8925C74.8239 24.3657 75.5104 23.6556 76.0423 22.7627L79.6515 24.1205C78.8291 25.8074 77.6711 27.1432 76.1776 28.129C74.6835 29.1148 73.0144 29.6077 71.1697 29.6077C69.445 29.6077 67.8483 29.1736 66.3797 28.3057C64.9106 27.4378 63.7504 26.2473 62.8982 24.7344C62.046 23.2217 61.6399 21.5849 61.6804 19.8239C61.7105 18.4847 61.9784 17.2139 62.4848 16.0108C62.991 14.808 63.6626 13.7696 64.5 12.8951C65.337 12.021 66.337 11.3235 67.5002 10.8027C68.663 10.2817 69.8862 10.0215 71.1698 10.0215C72.9839 10.0213 74.6685 10.5083 76.2225 11.4814Z" fill="black" stroke="black" stroke-miterlimit="10"/>
<path d="M85.305 1V29.0864H81.5004V1H85.305Z" fill="black" stroke="black" stroke-miterlimit="10"/>
<path d="M101.442 11.342C102.916 12.2102 104.076 13.3974 104.924 14.9039C105.771 16.4107 106.179 18.0509 106.149 19.8239C106.109 21.151 105.838 22.4157 105.337 23.6185C104.836 24.8216 104.164 25.8631 103.322 26.7433C102.48 27.624 101.48 28.3214 100.322 28.836C99.1637 29.3505 97.9382 29.6078 96.6451 29.6078C94.9306 29.6078 93.3363 29.1737 91.8628 28.3058C90.389 27.4379 89.2284 26.2506 88.3811 24.7438C87.5338 23.2371 87.1255 21.5974 87.1552 19.8241C87.1957 18.4848 87.4663 17.2141 87.9677 16.0109C88.4687 14.8081 89.1379 13.7698 89.9753 12.8952C90.8126 12.0212 91.8126 11.3268 92.9755 10.8122C94.1382 10.2976 95.3617 10.04 96.6452 10.04C98.3693 10.0397 99.9684 10.474 101.442 11.342ZM92.6518 15.6666C91.5538 16.8139 90.9902 18.1995 90.9605 19.8238C90.9202 21.4361 91.4643 22.8185 92.5921 23.9715C93.72 25.1248 95.0711 25.7014 96.6451 25.7014C98.219 25.7014 99.555 25.1282 100.653 23.9808C101.751 22.8338 102.315 21.4482 102.345 19.8236C102.384 18.2118 101.841 16.8289 100.713 15.6757C99.585 14.5226 98.2288 13.946 96.645 13.946C95.0808 13.946 93.7498 14.5196 92.6518 15.6666Z" fill="black" stroke="black" stroke-miterlimit="10"/>
<path d="M120.887 28.1939C119.573 29.1363 118.137 29.6076 116.578 29.6076C115.019 29.6076 113.58 29.1363 112.262 28.1939C110.943 27.2517 109.903 25.9682 109.141 24.3436C108.379 22.7194 107.998 20.9461 107.998 19.0239V10.5605H111.818V19.8051C111.818 21.4297 112.276 22.8091 113.194 23.9437C114.112 25.0783 115.227 25.6458 116.54 25.6458C117.853 25.6458 118.969 25.0783 119.886 23.9437C120.804 22.8091 121.263 21.4297 121.263 19.8051V10.5605H125.142V19.0239C125.142 20.9461 124.762 22.7194 124 24.3436C123.237 25.968 122.2 27.2517 120.887 28.1939Z" fill="black" stroke="black" stroke-miterlimit="10"/>
<path d="M146 1C145.99 3.04591 145.985 9.32053 145.985 19.8234C145.985 21.5845 145.561 23.2212 144.714 24.7338C143.867 26.2467 142.716 27.4371 141.263 28.305C139.809 29.1729 138.22 29.607 136.496 29.607C134.771 29.607 133.172 29.1729 131.698 28.305C130.225 27.4371 129.064 26.2467 128.217 24.7338C127.37 23.2211 126.961 21.5844 126.992 19.8234C127.051 17.0583 127.969 14.7332 129.743 12.8483C131.518 10.9637 133.769 10.021 136.496 10.021C137.538 10.021 138.576 10.2412 139.609 10.6813C140.641 11.1218 141.508 11.6949 142.21 12.4018V1H146ZM136.496 13.9458C134.922 13.9458 133.586 14.5194 132.488 15.6662C131.39 16.8134 130.826 18.1991 130.796 19.8233C130.756 21.4229 131.3 22.7994 132.428 23.9525C133.556 25.1058 134.912 25.6824 136.496 25.6824C138.06 25.6824 139.391 25.112 140.489 23.9711C141.587 22.8306 142.156 21.4479 142.196 19.8234C142.226 18.2116 141.679 16.8287 140.556 15.6756C139.433 14.5223 138.08 13.9458 136.496 13.9458Z" fill="black" stroke="black" stroke-miterlimit="10"/>
</svg>
